HIERARCHY
ROOT Hips
{
 OFFSET 0.000000 0.000000 0.000000
 CHANNELS 6 Xposition Yposition Zposition Yrotation Xrotation Zrotation
 JOINT Chest
 {
  OFFSET 0.000000 10.354800 0.006500
  CHANNELS 3 Yrotation Xrotation Zrotation
  JOINT Chest2
  {
   OFFSET 0.000000 10.435800 -0.013200
   CHANNELS 3 Yrotation Xrotation Zrotation
   JOINT Chest3
   {
    OFFSET 0.000000 10.393700 0.000000
    CHANNELS 3 Yrotation Xrotation Zrotation
    JOINT Chest4
    {
     OFFSET 0.000000 10.383100 0.000000
     CHANNELS 3 Yrotation Xrotation Zrotation
     JOINT Neck
     {
      OFFSET 0.000000 15.694000 0.000000
      CHANNELS 3 Yrotation Xrotation Zrotation
      JOINT Head
      {
       OFFSET 0.000000 9.711000 -0.028000
       CHANNELS 3 Yrotation Xrotation Zrotation
       End Site
       {
        OFFSET 0.000000 18.578700 -0.014800
       }
      }
     }
     JOINT RightCollar
     {
      OFFSET -3.157200 10.367500 0.000000
      CHANNELS 3 Yrotation Xrotation Zrotation
      JOINT RightShoulder
      {
       OFFSET -14.482500 0.000000 0.000000
       CHANNELS 3 Yrotation Xrotation Zrotation
       JOINT RightElbow
       {
        OFFSET 0.000000 -31.707800 0.000000
        CHANNELS 3 Yrotation Xrotation Zrotation
        JOINT RightWrist
        {
         OFFSET 0.000000 -25.659300 0.000000
         CHANNELS 3 Yrotation Xrotation Zrotation
         End Site
         {
          OFFSET 0.000000 -18.994300 0.000000
         }
        }
       }
      }
     }
     JOINT LeftCollar
     {
      OFFSET 3.157200 10.367500 0.000000
      CHANNELS 3 Yrotation Xrotation Zrotation
      JOINT LeftShoulder
      {
       OFFSET 14.482500 0.000000 0.000000
       CHANNELS 3 Yrotation Xrotation Zrotation
       JOINT LeftElbow
       {
        OFFSET 0.000000 -31.707800 0.000000
        CHANNELS 3 Yrotation Xrotation Zrotation
        JOINT LeftWrist
        {
         OFFSET 0.000000 -25.659300 0.000000
         CHANNELS 3 Yrotation Xrotation Zrotation
         End Site
         {
          OFFSET 0.000000 -18.994300 0.000000
         }
        }
       }
      }
     }
    }
   }
  }
 }
 JOINT RightHip
 {
  OFFSET -8.365600 -0.032100 -0.003200
  CHANNELS 3 Yrotation Xrotation Zrotation
  JOINT RightKnee
  {
   OFFSET 0.000000 -43.980000 0.003100
   CHANNELS 3 Yrotation Xrotation Zrotation
   JOINT RightAnkle
   {
    OFFSET 0.000000 -42.882800 0.005200
    CHANNELS 3 Yrotation Xrotation Zrotation
    JOINT RightToe
    {
     OFFSET 0.000000 -4.915500 10.826300
     CHANNELS 3 Yrotation Xrotation Zrotation
     End Site
     {
      OFFSET 0.000000 -1.517500 6.175900
     }
    }
   }
  }
 }
 JOINT LeftHip
 {
  OFFSET 8.365600 -0.032100 -0.003200
  CHANNELS 3 Yrotation Xrotation Zrotation
  JOINT LeftKnee
  {
   OFFSET 0.000000 -43.980000 0.003100
   CHANNELS 3 Yrotation Xrotation Zrotation
   JOINT LeftAnkle
   {
    OFFSET 0.000000 -42.882800 0.005200
    CHANNELS 3 Yrotation Xrotation Zrotation
    JOINT LeftToe
    {
     OFFSET 0.000000 -4.915500 10.826300
     CHANNELS 3 Yrotation Xrotation Zrotation
     End Site
     {
      OFFSET 0.000000 -1.517500 6.175900
     }
    }
   }
  }
 }
}
MOTION
Frames: 6
Frame Time: 0.008333
96.940059 126.585592 125.976091 179.311596 -21.376680 -4.228332 -2.757601 13.231510 4.149924 -0.274756 1.135122 0.379588 -0.461522 1.923450 0.637799 -2.523092 11.893054 3.738199 -0.895054 21.565477 -3.705808 -0.115620 -2.657353 -3.783925 1.896149 6.057804 -6.173941 -2.264182 -3.086617 -1.173322 -106.156664 -61.064216 133.140816 -20.213257 -15.701111 -36.264338 -1.198736 7.636014 0.372042 11.340335 -0.582252 -3.626682 86.578941 -54.058178 -131.978179 25.960993 -10.388028 46.006506 5.908210 -61.924171 4.442590 -81.832653 77.925257 -77.060948 4.347470 -6.040903 -14.669754 0.009624 0.001611 0.004370 -18.283949 -60.346987 14.196778 67.453721 81.966160 61.177393 -7.424186 -5.581077 1.308845 -0.000741 0.000097 -0.000336
96.939492 126.585757 125.975824 179.312876 -21.378238 -4.216770 -2.763135 13.229040 4.142488 -0.273396 1.138044 0.375028 -0.461135 1.920257 0.640178 -2.525620 11.889042 3.738985 -0.903229 21.566679 -3.706993 -0.142828 -2.669632 -3.772374 1.906363 6.068844 -6.165761 -2.261296 -3.072615 -1.129391 -106.187964 -61.101654 133.152387 -20.215515 -15.690465 -36.255164 -1.190560 7.646153 0.374020 11.345416 -0.582700 -3.622756 86.574195 -54.055263 -131.977913 25.918506 -10.397920 46.046182 5.927376 -61.922860 4.421643 -81.901653 77.956129 -77.129896 4.285876 -6.123116 -14.659831 0.004577 -0.001253 0.002078 -18.262588 -60.346488 14.171645 67.428889 81.959074 61.152051 -7.430269 -5.574137 1.311132 0.000118 -0.000476 0.000054
96.938672 126.585807 125.975702 179.305188 -21.379720 -4.200994 -2.764016 13.226532 4.131506 -0.269241 1.137786 0.377773 -0.460810 1.919214 0.640465 -2.524223 11.886045 3.741870 -0.916812 21.567107 -3.712298 -0.171446 -2.682108 -3.760724 1.912892 6.079890 -6.162590 -2.265207 -3.069843 -1.121076 -106.178359 -61.109748 133.125725 -20.218786 -15.678388 -36.251440 -1.184426 7.656326 0.370944 11.353720 -0.586173 -3.615522 86.565347 -54.053972 -131.962189 25.936142 -10.403293 46.054205 5.958262 -61.921010 4.398740 -81.937030 77.959305 -77.162986 4.191258 -6.187265 -14.644690 -0.006572 -0.001809 -0.002984 -18.232110 -60.347848 14.145186 67.421623 81.964006 61.140566 -7.413002 -5.575082 1.316921 0.000403 -0.001639 0.000183
96.938838 126.585887 125.975516 179.296998 -21.382026 -4.191042 -2.765416 13.226524 4.125287 -0.267088 1.134402 0.377929 -0.466022 1.916696 0.641524 -2.521087 11.882380 3.741316 -0.930498 21.565848 -3.710936 -0.191521 -2.692342 -3.757159 1.922794 6.094302 -6.161790 -2.268401 -3.069948 -1.120216 -106.117177 -61.100326 133.046286 -20.202843 -15.673494 -36.235227 -1.174042 7.670065 0.367823 11.352880 -0.588464 -3.613539 86.558762 -54.050261 -131.942282 25.946206 -10.407043 46.059407 5.982056 -61.921085 4.388571 -81.971093 77.967018 -77.201942 4.180138 -6.226287 -14.635311 -0.005583 -0.004197 -0.002535 -18.209211 -60.342832 14.131092 67.381278 81.965802 61.100526 -7.439236 -5.574451 1.319613 -0.001912 -0.000130 -0.000868
96.940880 126.585952 125.975471 179.290291 -21.383766 -4.192549 -2.765938 13.227120 4.130391 -0.267236 1.134689 0.376855 -0.460330 1.917301 0.639902 -2.522578 11.880506 3.740756 -0.948197 21.554954 -3.707666 -0.199380 -2.699586 -3.757595 1.931053 6.100073 -6.156698 -2.255481 -3.071053 -1.103581 -106.092629 -61.120166 133.000628 -20.198518 -15.668692 -36.233143 -1.163679 7.675061 0.368678 11.380069 -0.589028 -3.601210 86.514785 -54.036469 -131.921326 25.947654 -10.409201 46.052294 5.984653 -61.920143 4.400626 -81.981665 77.960536 -77.221631 4.236043 -6.242521 -14.628273 -0.000726 -0.006492 -0.000330 -18.209750 -60.335847 14.140672 67.371129 81.964586 61.092154 -7.435307 -5.577130 1.313226 0.001271 0.001554 0.000577
96.940350 126.585573 125.975659 179.286042 -21.382989 -4.181036 -2.773410 13.225111 4.120600 -0.266365 1.133593 0.378092 -0.460190 1.917114 0.640017 -2.526974 11.877701 3.744687 -0.984878 21.527024 -3.712930 -0.165888 -2.675775 -3.776445 1.951575 6.108901 -6.154499 -2.240392 -3.067798 -1.099631 -106.086737 -61.139233 132.971065 -20.200612 -15.665257 -36.233242 -1.138873 7.681054 0.360653 11.372855 -0.589297 -3.599509 86.483455 -54.038421 -131.859192 25.956958 -10.415281 46.031495 6.009650 -61.925668 4.382045 -82.010714 77.922119 -77.253308 4.210044 -6.223511 -14.613753 -0.012078 -0.004638 -0.005483 -18.197756 -60.337406 14.127010 67.389468 81.959368 61.106874 -7.434869 -5.574662 1.315650 0.001492 0.001047 0.000677
